<svg xmlns="http://www.w3.org/2000/svg" xmlns:xlink="http://www.w3.org/1999/xlink" viewBox="0 0 400 360"><defs><style>.cls-1{fill:url(#Dark_Gr_Bl);}.cls-2{fill:url(#Dark_Gr_Bl-2);}.cls-3{fill:#1c3664;}.cls-4{fill:#4ba2da;}</style><linearGradient id="Dark_Gr_Bl" x1="106.35" y1="96.61" x2="333.17" y2="96.61" gradientUnits="userSpaceOnUse"><stop offset="0" stop-color="#1f577b"/><stop offset="0.04" stop-color="#1f5479"/><stop offset="0.32" stop-color="#1d436d"/><stop offset="0.62" stop-color="#1c3966"/><stop offset="1" stop-color="#1c3664"/></linearGradient><linearGradient id="Dark_Gr_Bl-2" x1="106.03" y1="259.15" x2="333.43" y2="259.15" xlink:href="#Dark_Gr_Bl"/></defs><title>Logo</title><g id="Logo"><path class="cls-1" d="M215,43A134.82,134.82,0,0,0,106.35,97.87l65.9,38a60,60,0,0,1,95.93,14.3l65-37.52A134.94,134.94,0,0,0,215,43Z"/><path class="cls-2" d="M215,238a59.79,59.79,0,0,1-43.13-18.32l-65.84,38a135,135,0,0,0,227.4-14.86l-65-37.53A60,60,0,0,1,215,238Z"/><polygon id="bot_rt_tri" data-name="bot rt tri" class="cls-3" points="54 274.5 54 184 210.75 184 54 274.5"/><polygon id="top_rt_tri" data-name="top rt tri" class="cls-4" points="54 81.5 54 172 210.75 172 54 81.5"/></g></svg>